<svg width="147" height="32" viewBox="0 0 147 32" fill="none" xmlns="http://www.w3.org/2000/svg">
<path d="M25.6403 23.783L38.7466 15.6418L25.6367 7.5835" fill="#E20F23"/>
<path d="M13.0946 0L0 8.15742L12.473 15.7789L25.6352 7.58183L13.0946 0Z" fill="#F25E57"/>
<path d="M25.2565 7.80779L12.4727 15.7797V16.2363V31.9999L25.6384 23.7848V23.6948V8.03659V7.5835L25.2565 7.80779Z" fill="#F09B95"/>
<path d="M93.8953 11.9052C92.9113 11.8887 91.9286 11.9834 90.9659 12.1876C90.1272 12.3912 89.3348 12.7523 88.6308 13.2517C88.1352 13.6065 87.737 14.0804 87.4729 14.6297C87.1991 15.142 87.049 15.7114 87.0347 16.2921V25.6581H82.6172V8.27057H87.0357V10.0869C88.0024 9.37601 89.0903 8.8469 90.2463 8.52538C91.4338 8.19112 92.6617 8.02271 93.8953 8.02492V11.9052Z" fill="black"/>
<path d="M146.723 11.9052C145.739 11.8887 144.757 11.9834 143.794 12.1876C142.955 12.3912 142.163 12.7523 141.459 13.2517C140.963 13.6065 140.565 14.0804 140.301 14.6297C140.027 15.142 139.877 15.7114 139.863 16.2921V25.6581H135.445V8.27057H139.864V10.0869C140.83 9.37601 141.918 8.8469 143.074 8.52538C144.262 8.19112 145.49 8.02271 146.723 8.02492V11.9052Z" fill="black"/>
<path d="M52.1333 12.7462H56.9463V9.27154H52.1333V4.81738L44.7305 11.9338V12.7492H47.9269V20.6322C47.9269 23.8938 49.626 25.6612 53.3289 25.6612H56.9381V21.5271H54.446C53.0527 21.5271 52.1333 21.1021 52.1333 19.5436V12.7452V12.7462Z" fill="black"/>
<path d="M108.257 3.09375V10.3998C106.997 9.39745 105.479 8.77102 103.878 8.59244C102.278 8.41386 100.659 8.69038 99.2085 9.39023C97.758 10.0901 96.5342 11.1849 95.6778 12.5489C94.8215 13.9129 94.3672 15.4908 94.3672 17.1014C94.3672 18.712 94.8215 20.2899 95.6778 21.6539C96.5342 23.0179 97.758 24.1127 99.2085 24.8126C100.659 25.5124 102.278 25.789 103.878 25.6104C105.479 25.4318 106.997 24.8054 108.257 23.803V25.6591H112.879V3.09375H108.257ZM103.709 21.6025C102.811 21.6025 101.933 21.3361 101.186 20.837C100.439 20.338 99.8571 19.6286 99.5134 18.7987C99.1696 17.9688 99.0797 17.0556 99.2549 16.1746C99.4302 15.2936 99.8627 14.4843 100.498 13.8491C101.133 13.2139 101.942 12.7813 102.823 12.6061C103.704 12.4309 104.618 12.5208 105.448 12.8646C106.277 13.2083 106.987 13.7904 107.486 14.5373C107.985 15.2842 108.251 16.1624 108.251 17.0606C108.251 18.2651 107.772 19.4202 106.921 20.2719C106.069 21.1236 104.914 21.6022 103.709 21.6025Z" fill="black"/>
<path d="M71.3481 8.28809C69.6304 8.28829 67.9513 8.79786 66.5231 9.75236C65.095 10.7069 63.982 12.0634 63.3248 13.6505C62.6676 15.2376 62.4958 16.9839 62.8311 18.6686C63.1665 20.3533 63.9938 21.9007 65.2086 23.1152C66.4234 24.3297 67.971 25.1567 69.6558 25.4916C71.3406 25.8265 73.0868 25.6543 74.6737 24.9968C76.2607 24.3392 77.617 23.2259 78.5711 21.7975C79.5253 20.3692 80.0345 18.6899 80.0343 16.9722C80.0341 15.8316 79.8093 14.7023 79.3728 13.6486C78.9362 12.5949 78.2963 11.6376 77.4897 10.8312C76.6832 10.0248 75.7256 9.38515 74.6719 8.94881C73.6181 8.51247 72.4887 8.28795 71.3481 8.28809ZM71.3481 21.6404C70.4243 21.6402 69.5213 21.3661 68.7533 20.8527C67.9853 20.3393 67.3867 19.6098 67.0333 18.7563C66.6799 17.9027 66.5874 16.9636 66.7677 16.0575C66.948 15.1515 67.3929 14.3193 68.0461 13.666C68.6993 13.0128 69.5316 12.5679 70.4376 12.3877C71.3436 12.2074 72.2828 12.2998 73.1363 12.6532C73.9898 13.0067 74.7194 13.6052 75.2327 14.3733C75.7461 15.1413 76.0202 16.0443 76.0204 16.9681C76.0206 17.5817 75.8998 18.1893 75.665 18.7563C75.4303 19.3232 75.0861 19.8383 74.6522 20.2722C74.2184 20.7061 73.7032 21.0502 73.1363 21.285C72.5694 21.5197 71.9618 21.6405 71.3481 21.6404Z" fill="black"/>
<path d="M132.796 18.0678C133.072 15.8616 132.491 13.6337 131.171 11.844C129.852 10.0543 127.896 8.83961 125.707 8.45067C123.518 8.06173 121.263 8.52827 119.408 9.75396C117.553 10.9796 116.239 12.8709 115.739 15.0371C115.238 17.2034 115.588 19.4792 116.717 21.3947C117.846 23.3102 119.667 24.7191 121.805 25.3304C123.942 25.9417 126.233 25.7088 128.204 24.6797C130.175 23.6507 131.676 21.9041 132.396 19.8006H127.904C127.371 20.506 126.648 21.0452 125.819 21.3552C124.991 21.6653 124.092 21.7335 123.226 21.5519C122.361 21.3703 121.565 20.9463 120.931 20.3294C120.298 19.7125 119.853 18.9281 119.648 18.0678H128.719H132.796ZM124.19 12.3019C125.086 12.3024 125.963 12.561 126.716 13.0466C127.469 13.5323 128.067 14.2245 128.437 15.0406H119.939C120.309 14.2239 120.907 13.5312 121.661 13.0454C122.414 12.5597 123.293 12.3015 124.19 12.3019Z" fill="black"/>
<path d="M61.1982 4.87217C60.8737 4.71362 60.5046 4.6715 60.1527 4.75287C59.8009 4.83424 59.4877 5.03415 59.2658 5.31906C59.0439 5.60396 58.9267 5.95653 58.9339 6.3176C58.9411 6.67867 59.0723 7.02627 59.3054 7.30208L59.332 7.33266L59.3493 7.351C59.6449 7.64278 59.875 7.99422 60.0242 8.38191C60.1734 8.76959 60.2382 9.18462 60.2144 9.59933C60.1906 10.014 60.0787 10.4189 59.8861 10.787C59.6935 11.155 59.4247 11.4778 59.0975 11.7338L59.3585 12.1364C63.3193 10.9459 63.0512 5.74771 61.1992 4.8793" fill="#DC091D"/>
</svg>
