<svg width="24" height="24" viewBox="0 0 24 24" fill="none" xmlns="http://www.w3.org/2000/svg">
<mask id="mask0_6586_7651" style="mask-type:luminance" maskUnits="userSpaceOnUse" x="2" y="2" width="19" height="20">
<path d="M2.87891 2.94641H20.9996V21.4367H2.87891V2.94641Z" fill="white"/>
</mask>
<g mask="url(#mask0_6586_7651)">
<path fill-rule="evenodd" clip-rule="evenodd" d="M20.9991 12.4021C20.9995 11.7679 20.9431 11.1348 20.8305 10.5106H12.123V14.0866H17.1027C16.9997 14.6523 16.7831 15.1913 16.466 15.6709C16.1488 16.1505 15.7377 16.5609 15.2575 16.8771V19.1964H18.2451C19.1556 18.3204 19.8718 17.2627 20.3472 16.0921C20.8227 14.9215 21.0468 13.664 21.005 12.4011" fill="#3E82F1"/>
<path fill-rule="evenodd" clip-rule="evenodd" d="M12.1242 21.4368C14.3749 21.4981 16.5639 20.697 18.2433 19.1973L15.2557 16.878C14.5409 17.337 13.7307 17.6267 12.8869 17.7249C12.0432 17.8231 11.1881 17.7272 10.387 17.4446C9.58591 17.1621 8.85995 16.7002 8.26454 16.0943C7.66913 15.4884 7.21999 14.7545 6.95141 13.9486H3.8623V16.3438C4.63172 17.8753 5.81188 19.1628 7.27089 20.0622C8.7299 20.9615 10.4103 21.4375 12.1242 21.4368Z" fill="#32A753"/>
<path fill-rule="evenodd" clip-rule="evenodd" d="M6.95051 13.9474C6.56394 12.8083 6.56394 11.5735 6.95051 10.4344V8.03922H3.86436C3.21827 9.32727 2.88184 10.7484 2.88184 12.1894C2.88184 13.6304 3.21827 15.0515 3.86436 16.3396L6.95051 13.9474Z" fill="#F9BB00"/>
<path fill-rule="evenodd" clip-rule="evenodd" d="M12.1242 6.62298C13.4381 6.60005 14.7081 7.09586 15.6589 8.00292L18.3103 5.35145C16.6366 3.78041 14.4197 2.91816 12.1242 2.94542C10.4102 2.94481 8.72973 3.4209 7.27071 4.32048C5.81168 5.22005 4.63158 6.50766 3.8623 8.03939L6.95141 10.4366C7.3066 9.33999 7.99675 8.38243 8.9247 7.69866C9.85265 7.0149 10.9717 6.63938 12.1242 6.62495" fill="#E74133"/>
</g>
</svg>
