<svg width="36" height="36" viewBox="0 0 36 36" fill="none" xmlns="http://www.w3.org/2000/svg">
<path d="M13.9054 31.32C11.9479 31.3079 10.4548 29.295 9.33695 27.4928C6.21035 22.4734 5.88365 16.5821 7.81145 13.4487C8.36906 12.4415 9.17089 11.5906 10.1432 10.9742C11.1156 10.3578 12.2273 9.99568 13.3762 9.92115C15.443 9.92115 16.7512 11.1186 18.4562 11.1186C20.1167 11.1186 21.1292 9.91845 23.5201 9.91845C24.5283 9.97385 25.5107 10.2579 26.3929 10.7491C27.2751 11.2402 28.0341 11.9256 28.6123 12.7535C27.6306 13.3538 26.8324 14.2121 26.3048 15.2348C25.7772 16.2574 25.5403 17.4052 25.6199 18.5532C25.6996 19.7012 26.0927 20.8053 26.7565 21.7453C27.4203 22.6853 28.3293 23.4251 29.3845 23.8842C28.9159 25.0635 28.3392 26.1969 27.6619 27.27C26.5454 29.0655 24.97 31.3025 23.0165 31.32C22.2976 31.3027 21.5954 31.1 20.978 30.7314C20.2088 30.3281 19.3502 30.1256 18.4819 30.1428C16.145 30.1563 15.6469 31.3254 13.9378 31.3254L13.9054 31.32ZM17.6192 10.1007C17.5292 9.31091 17.6002 8.51107 17.8281 7.74952C18.056 6.98798 18.4359 6.28055 18.9449 5.67C19.9444 4.40661 21.3975 3.58319 22.9949 3.375C23.1628 4.99681 22.7013 6.62114 21.7057 7.91235C21.2493 8.55087 20.6556 9.079 19.9683 9.45793C19.281 9.83686 18.5175 10.057 17.734 10.102L17.6192 10.1007Z" fill="white"/>
</svg>
