<svg width="24" height="24" viewBox="0 0 24 24" fill="none" xmlns="http://www.w3.org/2000/svg">
<g id="icon-kakao-color">
<path id="Vector" d="M12.1701 3.75C7.1058 3.75 3 6.99 3 10.9806C3 13.56 4.7163 15.8271 7.2984 17.106C7.158 17.5902 6.3984 20.2227 6.3651 20.4288C6.3651 20.4288 6.3471 20.5845 6.4479 20.643C6.48151 20.66 6.51824 20.67 6.55585 20.6724C6.59346 20.6747 6.63115 20.6693 6.6666 20.6565C6.9555 20.616 10.0119 18.4686 10.5411 18.096C11.0808 18.172 11.6251 18.2099 12.1701 18.2094C17.2344 18.2094 21.3402 14.9694 21.3402 10.9788C21.3402 6.9882 17.2344 3.75 12.1701 3.75Z" fill="#381F1F"/>
</g>
</svg>
